<?xml version="1.0" encoding="utf-8"?>
<!-- Generator: Adobe Illustrator 15.0.2, SVG Export Plug-In . SVG Version: 6.00 Build 0)  -->
<!DOCTYPE svg PUBLIC "-//W3C//DTD SVG 1.1//EN" "http://www.w3.org/Graphics/SVG/1.1/DTD/svg11.dtd">
<svg version="1.1" id="Layer_1" xmlns="http://www.w3.org/2000/svg" xmlns:xlink="http://www.w3.org/1999/xlink" x="0px" y="0px"
	 width="800px" height="800px" viewBox="0 0 800 800" enable-background="new 0 0 800 800" xml:space="preserve">
<path fill-rule="evenodd" clip-rule="evenodd" d="M424.719,511.496"/>
<path fill-rule="evenodd" clip-rule="evenodd" fill="#EB2429" d="M400,303.272c1.952-2.254,3.845-4.556,5.68-6.905
	c-1.396-0.795-2.862-1.428-4.399-1.897c2.502-3.798,7.089-5.495,9.457-9.413c-1.295-1.473-4.917,0.274-5.656-1.9
	c4.504-4.166,10.921-6.079,14.493-11.288c-3.068,0.406-6.003-0.02-8.804-1.278c5.941-4.452,11.829-9.137,16.39-15.058
	c-2.928,0.314-5.863,0.517-8.807,0.608c1.587-4.43,16.141-15.748,20.795-16.934c-0.806-1.243-5.477-1.254-6.288-0.015
	c-2.849-9.335,20.523-3.991,23.375-3.296c7.824,1.905,21.571,0.688,28.105,4.458c3.387,1.954,6.137,4.129,7.017,8.088
	c1.013,4.556,5.349,4.363,6.263,8.273c0.935,3.989,7.184,4.458,9.401,7.813c2.426,3.666,2.403,8.39,2.487,12.585
	c-4.662,1.28-6.506-5.115-12.19-3.189c-4.885,1.655-11.766,2.029-16.104-1.28c-7.362,2.16-11.539-3.324-17.555,2.23
	c-4.812,4.442-5.949,11.018-4.507,17.216c-2.844,0.392-3.135-2.327-5.656-2.529c0.702,5.368,3.036,10.137,4.998,15.108
	c-2.027-0.798-3.912-1.851-5.653-3.158c0.619,6.691,4.1,12.438,5.615,18.883c-2.93-0.637-4.032-3.695-6.908-4.419
	c2.859,9.313,5.059,13.366,14.851,10.185c6.83-2.219,12.771-6.338,18.171-10.977c10.761-9.247,20.068-19.823,28.732-31.026
	c12-15.513,34.539-57.645,58.65-53.889c13.185,2.054,23.236,19.468,30.087,29.414c8.252,11.981,15.504,24.617,23.788,36.576
	c15.766,22.762,33.103,45.083,56.468,60.517c-0.421,2.274-4.35,0.873-5.667,1.874c30.147,28.313,66.844,51.055,102.357,71.947
	c-28.896,12.057-62.351-6.039-86.477-21.09c-12.973-8.094-25.244-17.275-36.928-27.132c-8.452-7.132-18.456-21.155-29.271-24.473
	c19.773,23.336,44.91,37.91,67.166,58.026c-40.303,10.809-68.448-19.845-94.241-45.51c13.609,20.143,33.885,32.484,50.831,49.183
	c-33.785,5.088-53.865-15.76-76.021-37.291c6.458,8.214,13.111,16.302,20.373,23.824c4.741,4.911,14.606,10.129,17.271,16.521
	c-30.715,1.543-46.821-16.61-65.955-37.267c7.976,15.071,19.769,27.443,30.726,40.328c-25.949-0.052-39.881-16.56-54.638-35.354
	c5.868,14.382,16.181,25.335,22.551,39.052c-22.149-2.544-34.955-18.325-45.201-36.589c2.11,13.428,8.624,25.05,14.378,37.146
	c-18.93-4.358-30.328-19.022-35.135-37.195c-2.113,11.891,2.293,22.804,5.579,33.979c-12.229-3.115-21.278-13.952-24.47-25.845
	c-3.096,11.398-9.641,21.306-18.74,28.806c-8.936,7.366,14.146,15.612,20.521,16.485c-1.668,4.381-7.178,4.854-10.709,6.895
	c12.597,16.122,20.548,11.622,34.591,1.339c11.297,3.534,20.356,23.981,9.986,32.731c0.104-5.781-0.834-12.474-5.623-16.367
	c0.149,6.606-0.424,14.729-5.705,19.484c0.295-5.172-0.793-10.081-1.853-15.1c-1.579,4.361-3.197,9.539-7.576,11.935
	c0.305-4.426,0.029-9.119-1.855-13.215c-4.161,0.146-8.312-0.406-12.228-1.845c-6.531-2.398-11.774-7.082-17.938-10.177
	c-1.101,3.338-0.292,7.745-2.539,10.686c-4.907-8.581-7.289-19.702-15.666-25.824c-6.295,16.478,0.765,32.732,12.375,44.733
	c9.803,10.133,13.188,22.857,1.906,33.925c0.563-7.461-4.508-10.204-9.397-14.489c8.53,15.469,0.93,34.823-12.688,44.628
	c-0.757-4.947,1.713-12.129-1.848-16.359c-5.436,10.24-12.994,18.863-14.54,30.79c-1.546-11.927-9.104-20.55-14.54-30.79
	c-3.56,4.23-1.09,11.412-1.848,16.359c-13.617-9.805-21.217-29.159-12.687-44.628c-4.89,4.285-9.96,7.028-9.398,14.489
	c-11.282-11.067-7.896-23.792,1.907-33.925c11.61-12.001,18.669-28.256,12.375-44.733c-8.377,6.122-10.758,17.243-15.666,25.824
	c-2.247-2.94-1.438-7.348-2.539-10.686c-6.163,3.095-11.406,7.778-17.938,10.177c-3.916,1.438-8.066,1.991-12.227,1.845
	c-1.885,4.096-2.16,8.789-1.856,13.215c-4.379-2.396-5.997-7.573-7.576-11.935c-1.06,5.019-2.147,9.928-1.853,15.1
	c-5.281-4.755-5.854-12.878-5.705-19.484c-4.789,3.894-5.727,10.586-5.623,16.367c-10.371-8.75-1.311-29.197,9.987-32.731
	c14.042,10.283,21.994,14.783,34.59-1.339c-3.531-2.04-9.041-2.514-10.708-6.895c6.375-0.873,29.458-9.119,20.521-16.485
	c-9.1-7.5-15.645-17.407-18.74-28.807c-3.191,11.895-12.241,22.73-24.47,25.846c3.286-11.175,7.692-22.088,5.58-33.979
	c-4.807,18.173-16.205,32.837-35.135,37.195c5.755-12.097,12.269-23.719,14.378-37.146c-10.246,18.263-23.052,34.045-45.201,36.589
	c6.37-13.717,16.682-24.67,22.551-39.051c-14.757,18.794-28.688,35.301-54.638,35.353c10.957-12.885,22.75-25.257,30.725-40.328
	c-19.134,20.655-35.24,38.81-65.955,37.267c2.664-6.392,12.529-11.609,17.271-16.52c7.262-7.523,13.916-15.61,20.373-23.825
	c-22.156,21.53-42.236,42.379-76.021,37.291c16.947-16.7,37.222-29.04,50.832-49.183c-25.794,25.665-53.939,56.319-94.242,45.511
	c22.257-20.117,47.393-34.689,67.166-58.027c-10.814,3.318-20.818,17.341-29.27,24.473c-11.684,9.856-23.955,19.038-36.928,27.132
	c-24.126,15.053-57.581,33.146-86.477,21.09c35.514-20.894,72.21-43.634,102.357-71.947c-1.317-1.001-5.246,0.4-5.667-1.873
	c23.365-15.434,40.702-37.755,56.468-60.517c8.284-11.959,15.536-24.595,23.788-36.576c6.851-9.946,16.902-27.36,30.087-29.414
	c24.111-3.755,46.65,38.376,58.65,53.889c8.665,11.203,17.972,21.779,28.733,31.026c5.399,4.638,11.34,8.758,18.17,10.977
	c9.792,3.181,11.992-0.873,14.851-10.185c-2.875,0.725-3.979,3.783-6.908,4.419c1.515-6.445,4.996-12.192,5.615-18.883
	c-1.742,1.308-3.626,2.36-5.653,3.158c1.961-4.971,4.296-9.74,4.998-15.108c-2.522,0.203-2.813,2.921-5.656,2.529
	c1.442-6.198,0.305-12.773-4.507-17.216c-6.016-5.555-10.193-0.071-17.555-2.23c-4.338,3.309-11.219,2.935-16.104,1.28
	c-5.684-1.926-7.528,4.469-12.19,3.189c0.084-4.195,0.062-8.919,2.488-12.585c2.218-3.354,8.467-3.824,9.401-7.813
	c0.915-3.91,5.25-3.718,6.263-8.273c0.88-3.958,3.63-6.134,7.017-8.088c6.534-3.771,20.282-2.553,28.106-4.458
	c2.851-0.694,26.224-6.039,23.375,3.296c-0.812-1.239-5.482-1.228-6.289,0.015c4.654,1.186,19.208,12.504,20.795,16.934
	c-2.943-0.091-5.879-0.294-8.807-0.608c4.561,5.92,10.449,10.606,16.39,15.058c-2.801,1.258-5.735,1.685-8.804,1.278
	c3.573,5.209,9.989,7.122,14.494,11.288c-0.739,2.175-4.361,0.428-5.656,1.9c2.368,3.918,6.955,5.614,9.457,9.413
	c-1.537,0.47-3.004,1.102-4.399,1.897C396.156,298.716,398.049,301.018,400,303.272z"/>
<g>
	<g>
		<path fill="#FFFFFF" d="M400,311.317c11.477,7.599,6.83,30.459,24.155,14.823c-0.956,7.337-9.87,29.955-4.94,35.959
			c6.454-1.381,11.701-11.46,16.195-15.646c4.817,12.09,11.833,6.48,22.234,4.941c-3.135,11.348-8.003,18.148,2.196,24.155
			c-6.785,7.406-16.232,13.829-24.352,19.777c-7.606,5.573-4.247,9.492-1.726,16.456c-7.689-0.509-22.855-6.953-29.901-3.64
			c-5.317,2.501-0.767,25.778-0.567,30.54H400h-3.294c0.199-4.762,4.75-28.039-0.567-30.54c-7.047-3.313-22.212,3.131-29.901,3.64
			c2.521-6.964,5.88-10.883-1.726-16.456c-8.12-5.948-17.567-12.371-24.352-19.777c10.199-6.007,5.33-12.807,2.196-24.155
			c10.401,1.539,17.417,7.149,22.234-4.941c4.496,4.186,9.741,14.265,16.196,15.646c4.93-6.004-3.985-28.622-4.941-35.959
			C393.171,341.776,388.523,318.916,400,311.317z"/>
	</g>
</g>
</svg>
